<?xml version="1.0" encoding="UTF-8"?>
<svg xmlns="http://www.w3.org/2000/svg" xmlns:xlink="http://www.w3.org/1999/xlink" width="20px" height="20px" viewBox="0 0 20 20" version="1.1">
<g id="surface1">
<path style=" stroke:none;fill-rule:nonzero;fill:#1976d2;fill-opacity:1;" d="M 15.832031 1.667969 L 4.167969 1.667969 C 2.785156 1.667969 1.667969 2.785156 1.667969 4.167969 L 1.667969 15.832031 C 1.667969 17.214844 2.785156 18.332031 4.167969 18.332031 L 15.832031 18.332031 C 17.214844 18.332031 18.332031 17.214844 18.332031 15.832031 L 18.332031 4.167969 C 18.332031 2.785156 17.214844 1.667969 15.832031 1.667969 Z M 14.757812 13.574219 C 14.917969 13.730469 15.003906 13.945312 15.003906 14.167969 C 15.003906 14.390625 14.917969 14.601562 14.757812 14.757812 C 14.601562 14.917969 14.390625 15.003906 14.167969 15.003906 C 13.945312 15.003906 13.730469 14.917969 13.574219 14.757812 L 10 11.175781 L 6.425781 14.757812 C 6.269531 14.917969 6.054688 15.003906 5.832031 15.003906 C 5.609375 15.003906 5.398438 14.917969 5.242188 14.757812 C 5.082031 14.601562 4.996094 14.390625 4.996094 14.167969 C 4.996094 13.945312 5.082031 13.730469 5.242188 13.574219 L 8.824219 10 L 5.242188 6.425781 C 4.914062 6.097656 4.914062 5.570312 5.242188 5.242188 C 5.570312 4.914062 6.097656 4.914062 6.425781 5.242188 L 10 8.824219 L 13.574219 5.242188 C 13.902344 4.914062 14.429688 4.914062 14.757812 5.242188 C 15.085938 5.570312 15.085938 6.097656 14.757812 6.425781 L 11.175781 10 Z M 14.757812 13.574219 "/>
</g>
</svg>
