<?xml version="1.0" encoding="UTF-8"?>
<svg xmlns="http://www.w3.org/2000/svg" xmlns:xlink="http://www.w3.org/1999/xlink" width="25px" height="25px" viewBox="0 0 20 20" version="1.1">
<g id="surface1">
<path style=" stroke:none;fill-rule:nonzero;fill:#1976d2;fill-opacity:1;" d="M 19.253906 5.273438 L 19.054688 4.15625 C 18.898438 3.257812 17.933594 2.675781 16.90625 2.855469 L 3.523438 5.21875 L 18.683594 5.21875 C 18.878906 5.21875 19.070312 5.238281 19.253906 5.273438 Z M 19.253906 5.273438 "/>
<path style=" stroke:none;fill-rule:nonzero;fill:#1976d2;fill-opacity:1;" d="M 18.683594 6.609375 L 1.316406 6.609375 C 0.589844 6.609375 0 7.089844 0 7.675781 L 0 16.113281 C 0 16.699219 0.589844 17.175781 1.316406 17.175781 L 18.683594 17.175781 C 19.410156 17.175781 20 16.699219 20 16.113281 L 20 7.675781 C 20 7.089844 19.410156 6.609375 18.683594 6.609375 Z M 6.195312 16.09375 L 4.800781 16.09375 L 4.800781 14.894531 L 6.195312 14.894531 Z M 6.195312 13.691406 L 4.800781 13.691406 L 4.800781 12.492188 L 6.195312 12.492188 Z M 6.195312 11.292969 L 4.800781 11.292969 L 4.800781 10.09375 L 6.195312 10.09375 Z M 6.195312 8.894531 L 4.800781 8.894531 L 4.800781 7.695312 L 6.195312 7.695312 Z M 16.433594 10.339844 L 15.363281 11.34375 L 16.328125 14.570312 L 15.789062 15.109375 C 15.730469 15.171875 15.632812 15.171875 15.574219 15.109375 L 14.132812 12.492188 L 12.808594 13.800781 L 13.019531 14.828125 L 12.679688 15.167969 C 12.636719 15.210938 12.5625 15.210938 12.519531 15.167969 L 10.609375 13.257812 C 10.566406 13.214844 10.566406 13.140625 10.609375 13.097656 L 10.949219 12.757812 L 11.960938 12.964844 L 13.265625 11.636719 L 10.667969 10.203125 C 10.605469 10.144531 10.605469 10.050781 10.667969 9.988281 L 11.207031 9.449219 L 14.414062 10.410156 L 15.425781 9.328125 C 15.722656 9.03125 16.1875 9.019531 16.464844 9.300781 C 16.742188 9.578125 16.730469 10.042969 16.433594 10.339844 Z M 16.433594 10.339844 "/>
</g>
</svg>
