<?xml version="1.0" encoding="UTF-8"?>
<svg xmlns="http://www.w3.org/2000/svg" xmlns:xlink="http://www.w3.org/1999/xlink" width="30px" height="30px" viewBox="0 0 30 30" version="1.1">
<g id="surface1">
<path style=" stroke:none;fill-rule:nonzero;fill:#1976d2;fill-opacity:1;" d="M 15 0 C 6.730469 0 0 6.730469 0 15 C 0 23.269531 6.730469 30 15 30 C 23.269531 30 30 23.269531 30 15 C 30 6.730469 23.269531 0 15 0 Z M 18.382812 20.367188 C 18.871094 20.855469 18.871094 21.644531 18.382812 22.132812 C 18.140625 22.378906 17.820312 22.5 17.5 22.5 C 17.179688 22.5 16.859375 22.378906 16.617188 22.132812 L 10.367188 15.882812 C 9.878906 15.394531 9.878906 14.605469 10.367188 14.117188 L 16.617188 7.867188 C 17.105469 7.378906 17.894531 7.378906 18.382812 7.867188 C 18.871094 8.355469 18.871094 9.144531 18.382812 9.632812 L 13.015625 15 Z M 18.382812 20.367188 "/>
</g>
</svg>
