<?xml version="1.0" encoding="UTF-8"?>
<svg xmlns="http://www.w3.org/2000/svg" xmlns:xlink="http://www.w3.org/1999/xlink" width="20px" height="20px" viewBox="0 0 30 30" version="1.1">
<g id="surface1">
<path style=" stroke:none;fill-rule:nonzero;fill:#ffffff;fill-opacity:1;" d="M 28.125 26.25 L 1.875 26.25 C 0.839844 26.25 0 25.410156 0 24.375 C 0 23.339844 0.839844 22.5 1.875 22.5 L 28.125 22.5 C 29.160156 22.5 30 23.339844 30 24.375 C 30 25.410156 29.160156 26.25 28.125 26.25 Z M 28.125 26.25 "/>
<path style=" stroke:none;fill-rule:nonzero;fill:#ffffff;fill-opacity:1;" d="M 28.125 16.875 L 1.875 16.875 C 0.839844 16.875 0 16.035156 0 15 C 0 13.964844 0.839844 13.125 1.875 13.125 L 28.125 13.125 C 29.160156 13.125 30 13.964844 30 15 C 30 16.035156 29.160156 16.875 28.125 16.875 Z M 28.125 16.875 "/>
<path style=" stroke:none;fill-rule:nonzero;fill:#ffffff;fill-opacity:1;" d="M 28.125 7.5 L 1.875 7.5 C 0.839844 7.5 0 6.660156 0 5.625 C 0 4.589844 0.839844 3.75 1.875 3.75 L 28.125 3.75 C 29.160156 3.75 30 4.589844 30 5.625 C 30 6.660156 29.160156 7.5 28.125 7.5 Z M 28.125 7.5 "/>
</g>
</svg>
